<svg xmlns="http://www.w3.org/2000/svg" viewBox="0 0 180 160" fill="none"><g stroke="#493f36" stroke-width="3.2" stroke-linecap="round" stroke-linejoin="round"><path d="M46 124c-26 8-40-7-30-23 8-12 25-3 17 8" stroke="#d98c54" stroke-width="12"/><path d="M39 121c-9-23-4-46 15-60l-1-34 27 19c15-4 26-2 38 3l26-19-3 39c15 17 20 39 10 57-12 23-94 26-112-5Z" fill="#edb67c"/><path d="m60 39 14 13-15 6Z" fill="#ed988e" stroke="none"/><path d="m135 43-14 14 13 6Z" fill="#ed988e" stroke="none"/><path d="m73 47 4 15m15-18 1 17m15-15-3 16" stroke="#b97546" stroke-width="5"/><path d="M63 82q6-8 13 0m32 0q6-8 13 0"/><path d="m87 88 7 1-4 5Z" fill="#493f36"/><path d="M90 94q-7 9-13 1m13-1q6 9 13 1"/><path d="m49 90-18-3m20 11-19 3m98-11 19-3m-20 11 19 3" stroke-width="2"/><ellipse cx="63" cy="94" rx="8" ry="4" fill="#ed988e" stroke="none"/><ellipse cx="116" cy="94" rx="8" ry="4" fill="#ed988e" stroke="none"/><path d="M59 123q-8 20 10 20h13m35-20q10 20-8 20H96" fill="#f5c994"/><path d="m68 135 1 7m7-7 1 7m31-7-1 7m-7-7-1 7" stroke-width="2"/></g><path d="M163 19c-8-12-24-2-12 12l10 10 12-12c11-14-4-23-10-10" fill="#c95747"/></svg>
